# xmcd
#
# Track frame offsets: 
#        150
#        18655
#        41027
#        63280
#        87399
#        98596
#        117559
#        142755
#        177747
#        194163
#        218417
#        253628
#        283258
#
# Disc length: 4212 seconds
#
# Revision: 0
# Processed by: cddbd v1.5.2PL0 Copyright (c) Steve Scherf et al.
# Submitted via: ExactAudioCopyFreeDBPlugin 1.0
#
DISCID=c410720d
DTITLE=Black Cat Bone - First, Second, Third ... The Early Years, Disk
DTITLE=2
DYEAR=1999
DGENRE=Blues
TTITLE0=Am Arsch der Welt
TTITLE1=Warom hot mir koiner gsait
TTITLE2=Mir ka koiner helfa
TTITLE3=Mal wieder nicht dabei
TTITLE4=Intro (Slow Blues)
TTITLE5=Hideaway
TTITLE6=No koi Hektik
TTITLE7=Rockstar
TTITLE8=I ain't got you
TTITLE9=Weil's Business so beschiss'n iss
TTITLE10=Egon
TTITLE11=D'r Dampf isch raus
TTITLE12=Slide Rider
EXTD=
EXTT0=
EXTT1=
EXTT2=
EXTT3=
EXTT4=
EXTT5=
EXTT6=
EXTT7=
EXTT8=
EXTT9=
EXTT10=
EXTT11=
EXTT12=
PLAYORDER=
